<?xml version="1.0" encoding="UTF-8"?>
<svg width="171px" height="58px" viewBox="0 0 171 58" version="1.1" xmlns="http://www.w3.org/2000/svg" xmlns:xlink="http://www.w3.org/1999/xlink">
    <title>Agency</title>
    <g id="Page-1" stroke="none" stroke-width="1" fill="none" fill-rule="evenodd">
        <path d="M4.42023346,40.1691025 L9.22587952,27.8369812 L21.7421793,27.8369812 L26.5930597,40.1691025 L35.62,40.1691025 L20.0155597,0.372819824 C17.8061203,1.63023987 14.7758804,2.32011993 11.98996,3.04420044 L13.4155597,6.66838043 L0.360741272,40.1691025 L4.42023346,40.1691025 Z M20.2546002,24.0546411 L10.70008,24.0546411 L15.45496,11.8526208 L20.2546002,24.0546411 Z M49.1821207,57.8157996 C57.1762811,57.8157996 63.8401813,54.1141595 63.8401813,47.23 C63.8401813,43.5929083 62.542381,37.5610361 52.8102008,37.5623801 C50.4846606,37.5623801 47.7161407,37.6341043 44.3309409,37.6341043 C40.9093808,37.6341043 39.4595526,35.3284357 41.0095807,33.2538397 C42.7077008,34.4439044 45.813121,35.4122256 47.9412607,35.4152744 C54.3061807,35.4152139 59.4718213,30.62242 59.4718213,24.7169803 C59.4675009,20.57164 56.052421,16.0671402 51.8488806,14.6623001 C52.6267813,12.1459 55.953121,11.0002603 57.5913007,14.1113797 C59.6743213,18.0671802 64.5646811,14.0731601 62.0095212,10.7646402 C60.9171011,9.35019989 59.2639206,8.59702026 57.4900214,8.59702026 C56.0202008,8.59702026 54.4675214,9.11578003 53.0822406,10.20496 C51.723241,11.2736203 51.0022806,12.8399796 50.7378607,14.3486203 C49.9780811,14.1692804 48.7251608,14.0214401 47.9412607,14.0186203 C41.5762207,14.0186203 36.4103888,18.8114801 36.4103888,24.7169803 C36.4111505,27.2282196 37.9944131,30.6797797 39.9443591,32.4213397 C38.5364053,33.98422 36.5275214,36.6721661 36.9083231,38.9508221 C37.6726749,43.5242383 41.9976608,43.7158957 47.1365405,43.7125 C52.1986807,43.7091583 61.1755206,42.6821262 61.1755206,48.7326999 C61.1755206,54.1141595 55.0852808,56.0578598 49.5779407,55.9169803 C44.6487607,55.7909799 41.9376013,54.1141 44.4925214,49.6887997 C46.669921,45.9174396 38.760997,42.4379083 37.3778888,47.5996002 C35.7017587,53.8550204 41.7368408,57.8157996 49.1821207,57.8157996 Z M47.9412607,33.9365796 C45.4885208,33.9365796 43.4977808,29.8062402 43.4977808,24.7169803 C43.4977808,19.6276599 45.4884613,15.4972601 47.9412607,15.4972601 C50.3938806,15.4972601 52.3844412,19.6277798 52.3844412,24.7169803 C52.3844412,29.8061798 50.3938211,33.9365796 47.9412607,33.9365796 Z M76.8916995,40.1355859 C80.8539188,40.1323047 83.8064587,38.3062296 86.0909595,35.3635956 L85.4371393,34.6734756 C84.1107196,35.9458948 82.5871402,37.6722452 79.0445602,37.6749991 C75.4196002,37.6778134 72.4811603,32.9800595 72.4811603,27.4741586 L72.4811603,27.3082587 L87.3287003,27.3082587 L87.8,27.3043585 C87.8,19.319498 84.1027399,14.8126581 76.0551199,14.8126581 C69.4057391,14.8126581 64.0151535,20.4814597 64.0151535,27.4741595 C64.0151535,34.4668723 68.6010794,40.1355859 76.8916995,40.1355859 Z M82.4876599,25.3961194 L72.5940796,25.3961194 C73.0959799,20.8673801 75.2421198,17.4122202 78.3988397,17.4122202 C82.4302399,17.4122202 82.5809,22.2314792 82.4876599,25.3961194 Z M99.8590005,40.1000781 L99.8590005,18.8693204 C102.583961,17.2087607 107.555201,17.4168408 107.555201,22.2927408 L107.555201,40.0902353 L115.804721,40.0902353 L115.804721,22.1013406 C115.804721,17.7238611 111.660462,15.0879407 108.101982,15.0879407 C103.682862,15.0879407 101.207562,16.5952008 99.8590015,18.0035812 L99.8590015,12.7670203 L98.4709604,12.7670203 C98.4709613,14.98336 93.8544531,16.0935999 91.5400009,16.0168604 L91.5400009,40.1000781 L99.8590005,40.1000781 Z M132.470161,40.1355875 C137.564881,40.1355875 140.334241,37.3793387 142.328101,34.9022266 L141.67428,34.2118723 C140.34786,35.4849405 138.16572,37.672247 134.62302,37.6750009 C130.99806,37.6778152 128.05956,32.976521 128.05956,27.4678607 C128.05956,21.9591409 130.35252,16.7151413 133.97742,16.7154407 C137.19414,16.715741 137.91822,19.0850214 137.21928,22.6828607 C136.42422,26.7763007 142.5,27.4535812 142.5,23.3204807 C142.5,17.9419012 138.94596,14.799881 131.6337,14.799881 C124.984141,14.799881 119.593711,20.4716205 119.593711,27.4678607 C119.593711,34.4640652 124.179541,40.137872 132.470161,40.1355875 Z M154.256419,48.7202798 C155.848195,45.2236085 157.9889,40.5378679 160.182387,35.7423555 L160.594163,34.8421741 C160.80024,34.3917037 161.006507,33.9408614 161.212557,33.4905364 L161.624247,32.5908399 L161.624247,32.5908399 L162.034629,31.6941042 C166.061251,22.8959416 169.792939,14.75652 170.119999,14.0405197 L167.237419,14.0405197 C166.462099,15.7409195 163.268239,22.7465787 159.899599,30.1387589 C156.529759,24.4328793 153.342499,18.5443594 150.044059,12.7670193 L148.79906,13.4112402 C149.94848,16.0194403 146.054666,18.5553403 144.21008,19.5002798 C145.269157,21.3703898 146.546007,23.6311835 147.840763,25.9263578 L148.194171,26.5528992 C148.488798,27.0752811 148.783412,27.5977659 149.075665,28.1161706 L149.425086,28.7360302 L149.425086,28.7360302 L149.77134,29.3503669 C152.468912,34.1368451 154.7921,38.2671457 154.7921,38.2671457 L155.57192,39.6390625 C154.955479,40.9931082 152.734039,45.7789844 152.197879,46.9571802 C149.313139,53.2970798 147.309979,54.7655801 145.643575,54.3405997 C144.657091,54.0889597 143.38877,52.3987003 145.470661,49.67008 C148.537753,45.6502539 142.60578,42.6371262 140.538361,46.2180997 C138.365467,49.9816595 140.483395,54.8501804 145.130467,55.8616595 C149.240959,56.7563202 152.352799,52.9016196 154.256419,48.7202798 Z" id="Agency" fill="#272C30" fill-rule="nonzero"></path>
    </g>
</svg>